<?xml version="1.0" encoding="utf-8"?>
<!-- Generator: Adobe Illustrator 24.3.0, SVG Export Plug-In . SVG Version: 6.00 Build 0)  -->
<svg version="1.1" id="Layer_1" xmlns="http://www.w3.org/2000/svg" xmlns:xlink="http://www.w3.org/1999/xlink" x="0px" y="0px"
	 viewBox="0 0 60.5 107.54" style="enable-background:new 0 0 60.5 107.54;" xml:space="preserve">
<style type="text/css">
	.st0{fill:#E3DFDF;}
	.st1{fill:#FFFFFF;}
	.st2{fill:none;stroke:#7D7D7D;stroke-width:0.5;stroke-miterlimit:10;}
	.st3{fill:none;stroke:#CFBEAD;stroke-width:0.5;stroke-miterlimit:10;}
</style>
<g>
	<path class="st0" d="M56.79,8.57L33.34,0.75c-2-0.67-4.17-0.67-6.18,0L3.71,8.57c-2.07,0.69-3.46,2.63-3.46,4.81v81.58
		c0,2.24,1.47,4.21,3.61,4.85l23.58,7.07c1.83,0.55,3.78,0.55,5.61,0l23.58-7.07c2.14-0.64,3.61-2.62,3.61-4.85V13.37
		C60.25,11.19,58.85,9.26,56.79,8.57z M54.25,91.8c0,0.51-0.41,0.92-0.92,0.92H7.17c-0.51,0-0.92-0.41-0.92-0.92V15.65
		c0-0.51,0.41-0.92,0.92-0.92h46.15c0.51,0,0.92,0.41,0.92,0.92V91.8z"/>
</g>
<path class="st1" d="M56.79,8.57L33.34,0.75c-2.01-0.67-4.17-0.67-6.18,0L3.71,8.57c-2.06,0.68-3.46,2.62-3.46,4.8v81.58
	c0,2.24,1.47,4.21,3.61,4.85l0.86,0.26c-0.31-0.65-0.47-1.36-0.47-2.11V16.37c0-2.18,1.4-4.12,3.46-4.8l23.45-7.82
	c2.01-0.67,4.17-0.67,6.18,0l22.43,7.48C59.2,9.99,58.13,9.01,56.79,8.57z"/>
<g>
	<path class="st2" d="M56.79,8.57L33.34,0.75c-2-0.67-4.17-0.67-6.18,0L3.71,8.57c-2.07,0.69-3.46,2.63-3.46,4.81v81.58
		c0,2.24,1.47,4.21,3.61,4.85l23.58,7.07c1.83,0.55,3.78,0.55,5.61,0l23.58-7.07c2.14-0.64,3.61-2.62,3.61-4.85V13.37
		C60.25,11.19,58.85,9.26,56.79,8.57z"/>
</g>
<path class="st3" d="M54.04,93.72H6.46c-0.67,0-1.21-0.54-1.21-1.21V14.94c0-0.67,0.54-1.21,1.21-1.21h47.57
	c0.67,0,1.21,0.54,1.21,1.21v77.57C55.25,93.18,54.71,93.72,54.04,93.72z"/>
<rect x="3.75" y="12.22" class="st3" width="3" height="3"/>
<rect x="53.75" y="12.22" class="st3" width="3" height="3"/>
<rect x="3.75" y="92.22" class="st3" width="3" height="3"/>
<rect x="53.75" y="92.22" class="st3" width="3" height="3"/>
</svg>
